# xmcd
#
# Track frame offsets: 
#        150
#        51600
#        78525
#        166050
#        197925
#        218550
#
# Disc length: 3732 seconds
#
# Revision: 1
# Processed by: cddbd v1.5.1PL0 Copyright (c) Steve Scherf et al.
# Submitted via: ExactAudioCopy v0.95a5
#
DISCID=510e9206
DTITLE=Shibusashirazu - Be Cool
DYEAR=1998
DGENRE=Jazz
TTITLE0=Duel in the Underground
TTITLE1=How about That?
TTITLE2=Whereabouts Unknown
TTITLE3=Onuma Blues
TTITLE4=Hazure
TTITLE5=Theme of Inuhime
EXTD=YEAR: 1998
EXTT0=
EXTT1=
EXTT2=
EXTT3=
EXTT4=
EXTT5=
PLAYORDER=
